<svg width="1594" height="825" viewBox="0 0 1594 825" fill="none" xmlns="http://www.w3.org/2000/svg"><g clip-path="url(#clip0_371_791)"><rect x="3" y="3" width="1588" height="819" rx="16" fill="white"/><rect x="2.53516" y="3.34802" width="1588.8" height="818.439" rx="4" fill="#F7F9FA"/><rect x="2.53516" y="115.345" width="357.529" height="706.442" rx="4" fill="white"/><rect x="2.53516" y="3.3479" width="1588.8" height="55.9985" fill="#1351B4"/><rect x="2.53516" y="526.234" width="357.529" height="55.9985" fill="#1351B4"/><mask id="path-6-inside-1_371_791" fill="white"><path d="M2.53516 59.3466H1591.34V115.345H2.53516V59.3466Z"/></mask><path d="M2.53516 59.3466H1591.34V115.345H2.53516V59.3466Z" fill="white"/><path d="M1591.34 114.345H2.53516V116.345H1591.34V114.345Z" fill="#D9D9D9" mask="url(#path-6-inside-1_371_791)"/><mask id="path-8-inside-2_371_791" fill="white"><path d="M2.53516 582.233H360.064V638.232H2.53516V582.233Z"/></mask><path d="M2.53516 582.233H360.064V638.232H2.53516V582.233Z" fill="white"/><path d="M360.064 637.232H2.53516V639.232H360.064V637.232Z" fill="#D9D9D9" mask="url(#path-8-inside-2_371_791)"/><rect x="360.064" y="3.3479" width="7.75146" height="818.439" rx="3.87573" fill="#DFE1E2"/><rect x="24.3008" y="74.1193" width="313.998" height="28" rx="3" stroke="#D9D9D9" stroke-width="2"/><rect x="23.8008" y="232.833" width="29" height="29" rx="3.5" stroke="#D9D9D9"/><rect x="23.8008" y="275.059" width="29" height="29" rx="3.5" stroke="#D9D9D9"/><rect x="23.8008" y="317.285" width="29" height="29" rx="3.5" stroke="#D9D9D9"/><rect x="23.8008" y="444.186" width="29" height="29" rx="3.5" stroke="#D9D9D9"/><rect x="23.8008" y="359.511" width="29" height="29" rx="3.5" stroke="#D9D9D9"/><rect x="23.8008" y="401.738" width="29" height="29" rx="3.5" stroke="#D9D9D9"/><rect x="31.1084" y="409.046" width="14.384" height="14.384" rx="2" fill="#1351B4"/><rect x="393.752" y="73.1193" width="30" height="30" rx="4" fill="#DBF6ED"/><rect x="23.3008" y="596.006" width="30" height="30" rx="4" fill="#F2E4D4"/><rect x="23.3008" y="539.234" width="30" height="30" rx="4" fill="#F1F3F6"/><rect x="393.752" y="17.1204" width="30" height="30" rx="4" fill="#F1F3F6"/><rect x="199.299" y="17.1204" width="30" height="30" rx="4" fill="#F1F3F6"/><rect x="23.3008" y="17.1204" width="100" height="30" rx="4" fill="#F1F3F6"/><rect x="239.299" y="17.1204" width="100" height="30" rx="4" fill="#F1F3F6"/><rect x="1466.05" y="17.1204" width="100" height="30" rx="4" fill="#F1F3F6"/><rect x="239.299" y="539.234" width="100" height="30" rx="4" fill="#D9D9D9"/><rect x="239.299" y="539.234" width="100" height="30" rx="4" fill="#F1F3F6"/><rect x="23.3008" y="653.675" width="315.998" height="70" rx="4" fill="#F7F9FA"/><rect x="23.3008" y="134.396" width="315.998" height="76.6167" rx="4" fill="#FEE685"/><rect x="23.3008" y="733.078" width="315.998" height="70" rx="4" fill="#F7F9FA"/><rect x="473.752" y="73.1193" width="30" height="30" rx="4" fill="#DBE8FB"/><rect x="103.301" y="596.006" width="30" height="30" rx="4" fill="#F2E4D4"/><rect x="103.301" y="232.333" width="70" height="30" rx="4" fill="#F1F3F6"/><rect x="63.3008" y="274.559" width="70" height="30" rx="4" fill="#F1F3F6"/><rect x="63.3008" y="316.785" width="70" height="30" rx="4" fill="#F1F3F6"/><rect x="63.3008" y="443.686" width="70" height="30" rx="4" fill="#F1F3F6"/><rect x="103.301" y="359.011" width="70" height="30" rx="4" fill="#F1F3F6"/><rect x="103.301" y="401.238" width="70" height="30" rx="4" fill="#F1F3F6"/><rect x="473.752" y="17.1204" width="30" height="30" rx="4" fill="#F1F3F6"/><rect x="553.752" y="73.1193" width="30" height="30" rx="4" fill="#F5E6AF"/><rect x="183.301" y="596.006" width="30" height="30" rx="4" fill="#F2E4D4"/><path d="M183.301 236.333C183.301 234.124 185.092 232.333 187.301 232.333H360.064V262.333H187.301C185.092 262.333 183.301 260.542 183.301 258.333V236.333Z" fill="#EDEFF0"/><path d="M143.301 278.559C143.301 276.35 145.092 274.559 147.301 274.559H360.064V304.559H147.301C145.092 304.559 143.301 302.768 143.301 300.559V278.559Z" fill="#EDEFF0"/><path d="M143.301 320.785C143.301 318.576 145.092 316.785 147.301 316.785H360.064V346.785H147.301C145.092 346.785 143.301 344.995 143.301 342.785V320.785Z" fill="#EDEFF0"/><path d="M143.301 447.686C143.301 445.477 145.092 443.686 147.301 443.686H360.064V473.686H147.301C145.092 473.686 143.301 471.895 143.301 469.686V447.686Z" fill="#EDEFF0"/><path d="M183.301 363.011C183.301 360.802 185.092 359.011 187.301 359.011H360.064V389.011H187.301C185.092 389.011 183.301 387.221 183.301 385.011V363.011Z" fill="#EDEFF0"/><path d="M183.301 405.238C183.301 403.028 185.092 401.238 187.301 401.238H360.064V431.238H187.301C185.092 431.238 183.301 429.447 183.301 427.238V405.238Z" fill="#EDEFF0"/><rect x="553.752" y="17.1204" width="190" height="30" rx="4" fill="#F1F3F6"/><rect x="804.517" y="17.1204" width="190" height="30" rx="4" fill="#F1F3F6"/><rect x="1255.28" y="17.1204" width="190" height="30" rx="4" fill="#F1F3F6"/><rect x="1004.52" y="17.1204" width="190" height="30" rx="4" fill="#F1F3F6"/><rect x="633.752" y="73.1193" width="30" height="30" rx="4" fill="#DFEACD"/><rect x="713.752" y="73.1193" width="30" height="30" rx="4" fill="#DFEACD"/><rect x="793.752" y="73.1193" width="30" height="30" rx="4" fill="#DFEACD"/><rect x="764.517" y="17.1204" width="30" height="30" rx="4" fill="#F1F3F6"/><rect x="1215.28" y="17.1204" width="30" height="30" rx="4" fill="#F1F3F6"/><rect x="873.752" y="73.1193" width="30" height="30" rx="4" fill="#DFEACD"/><rect x="953.752" y="73.1193" width="30" height="30" rx="4" fill="#F2E4D4"/><rect x="1033.75" y="73.1193" width="30" height="30" rx="4" fill="#F2E4D4"/><rect x="1193.75" y="73.1193" width="30" height="30" rx="4" fill="#F2E4D4"/><rect x="1113.75" y="73.1193" width="30" height="30" rx="4" fill="#F2E4D4"/><rect x="1273.75" y="73.1193" width="30" height="30" rx="4" fill="#E0E0FF"/><rect x="433.752" y="73.1193" width="30" height="30" rx="4" fill="#DBE8FB"/><rect x="63.3008" y="596.006" width="30" height="30" rx="4" fill="#F2E4D4"/><rect x="63.3008" y="539.234" width="30" height="30" rx="4" fill="#F1F3F6"/><rect x="63.3008" y="232.333" width="30" height="30" rx="4" fill="#F6E1E8"/><rect x="63.3008" y="359.011" width="30" height="30" rx="4" fill="#E1E7F1"/><rect x="63.3008" y="401.238" width="30" height="30" rx="4" fill="#E1E7F1"/><rect x="433.752" y="17.1204" width="30" height="30" rx="4" fill="#F1F3F6"/><rect x="513.752" y="73.1193" width="30" height="30" rx="4" fill="#F5E6AF"/><rect x="143.301" y="596.006" width="30" height="30" rx="4" fill="#F2E4D4"/><rect x="513.752" y="17.1204" width="30" height="30" rx="4" fill="#F1F3F6"/><rect x="673.752" y="73.1193" width="30" height="30" rx="4" fill="#DFEACD"/><rect x="753.752" y="73.1193" width="30" height="30" rx="4" fill="#DFEACD"/><rect x="833.752" y="73.1193" width="30" height="30" rx="4" fill="#DFEACD"/><rect x="993.752" y="73.1193" width="30" height="30" rx="4" fill="#F2E4D4"/><rect x="1073.75" y="73.1193" width="30" height="30" rx="4" fill="#F2E4D4"/><rect x="1153.75" y="73.1193" width="30" height="30" rx="4" fill="#D9D9D9"/><rect x="1153.75" y="72.3458" width="30" height="30" rx="4" fill="#F2E4D4"/><rect x="1313.75" y="72.3458" width="30" height="30" rx="4" fill="#E0E0FF"/><rect x="393.752" y="149.119" width="310" height="192" rx="4" fill="white"/><rect x="753.752" y="149.119" width="310" height="258" rx="4" fill="white"/><rect x="753.752" y="447.119" width="310" height="346.889" rx="4" fill="white"/><rect x="393.752" y="381.119" width="310" height="338" rx="4" fill="white"/><rect x="1113.75" y="149.119" width="444.162" height="510.184" rx="4" fill="white"/><rect x="1344.75" y="170.119" width="193.999" height="28" rx="3" stroke="#D9D9D9" stroke-width="2"/><rect x="453.752" y="169.119" width="190" height="30" rx="4" fill="#EDEFF0"/><rect x="443.752" y="400.119" width="190" height="30" rx="4" fill="#EDEFF0"/><rect x="413.752" y="169.119" width="30" height="30" rx="4" fill="#EDEFF0"/><rect x="403.752" y="400.119" width="30" height="30" rx="4" fill="#EDEFF0"/><rect x="808.752" y="169.119" width="190" height="30" rx="4" fill="#EDEFF0"/><rect x="768.752" y="225.118" width="275.162" height="12.001" rx="4" fill="#D9D9D9"/><rect x="768.752" y="225.118" width="275.162" height="12.001" rx="4" fill="#F6E1E8"/><rect x="413.752" y="260.797" width="275.162" height="12.001" rx="4" fill="#EDEFF0"/><rect x="413.752" y="286.571" width="250" height="12.001" rx="4" fill="#EDEFF0"/><rect x="768.752" y="524.565" width="275.162" height="12.001" rx="4" fill="#EBE3F9"/><rect x="768.752" y="704.24" width="275.162" height="12.001" rx="4" fill="#EBE3F9"/><rect x="768.752" y="314.955" width="275.162" height="12.001" rx="4" fill="#F6E1E8"/><rect x="768.752" y="614.402" width="275.162" height="12.001" rx="4" fill="#EBE3F9"/><rect x="823.752" y="263.118" width="220.162" height="12.001" rx="4" fill="#EDEFF0"/><rect x="823.752" y="562.565" width="220.162" height="12.001" rx="4" fill="#EDEFF0"/><rect x="458.752" y="472.728" width="220.162" height="12.001" rx="4" fill="#EDEFF0"/><rect x="458.752" y="536.727" width="220.162" height="12.001" rx="4" fill="#EDEFF0"/><rect x="458.752" y="600.726" width="220.162" height="12.001" rx="4" fill="#EDEFF0"/><rect x="458.752" y="664.725" width="220.162" height="12.001" rx="4" fill="#EDEFF0"/><rect x="823.752" y="742.24" width="220.162" height="12.001" rx="4" fill="#EDEFF0"/><rect x="823.752" y="352.955" width="220.162" height="12.001" rx="4" fill="#EDEFF0"/><rect x="823.752" y="652.402" width="220.162" height="12.001" rx="4" fill="#EDEFF0"/><rect x="808.752" y="468.566" width="190" height="30" rx="4" fill="#EDEFF0"/><rect x="1168.75" y="169.119" width="135" height="30" rx="4" fill="#EDEFF0"/><rect x="768.752" y="169.119" width="30" height="30" rx="4" fill="#EDEFF0"/><rect x="768.752" y="248.956" width="40" height="40" rx="4" fill="#F6E1E8"/><rect x="768.752" y="548.403" width="40" height="40" rx="4" fill="#EBE3F9"/><rect x="403.752" y="458.566" width="40" height="40" rx="4" fill="#EBE3F9"/><rect x="403.752" y="522.565" width="40" height="40" rx="4" fill="#DBE8FB"/><rect x="403.752" y="586.564" width="40" height="40" rx="4" fill="#CCECF2"/><rect x="403.752" y="650.563" width="40" height="40" rx="4" fill="#C7EFE2"/><rect x="768.752" y="728.078" width="40" height="40" rx="4" fill="#EBE3F9"/><rect x="768.752" y="338.794" width="40" height="40" rx="4" fill="#F6E1E8"/><path d="M1128.75 227.956C1128.75 225.747 1130.54 223.956 1132.75 223.956H1535.75C1537.96 223.956 1539.75 225.747 1539.75 227.956V262.301H1128.75V227.956Z" fill="#C5EE93"/><path d="M1128.75 373.448C1128.75 371.239 1130.54 369.448 1132.75 369.448H1535.75C1537.96 369.448 1539.75 371.239 1539.75 373.448V407.793H1128.75V373.448Z" fill="#FEE685"/><path d="M1128.75 518.939C1128.75 516.73 1130.54 514.939 1132.75 514.939H1535.75C1537.96 514.939 1539.75 516.73 1539.75 518.939V553.284H1128.75V518.939Z" fill="#FFDDEA"/><path d="M1128.75 262.301H1539.75V344.421C1539.75 346.63 1537.96 348.421 1535.75 348.421H1132.75C1130.54 348.421 1128.75 346.63 1128.75 344.421V262.301Z" fill="#EAF4DD"/><path d="M1128.75 407.793H1539.75V489.912C1539.75 492.121 1537.96 493.912 1535.75 493.912H1132.75C1130.54 493.912 1128.75 492.121 1128.75 489.912V407.793Z" fill="#FFF5C2"/><path d="M1128.75 553.284H1539.75V635.403C1539.75 637.613 1537.96 639.403 1535.75 639.403H1132.75C1130.54 639.403 1128.75 637.613 1128.75 635.403V553.284Z" fill="#FFF2F5"/><rect x="768.752" y="638.241" width="40" height="40" rx="4" fill="#EBE3F9"/><rect x="768.752" y="468.566" width="30" height="30" rx="4" fill="#EDEFF0"/><rect x="1128.75" y="169.119" width="30" height="30" rx="4" fill="#EDEFF0"/></g><rect x="3" y="3" width="1588" height="819" rx="16" stroke="#1351B4" stroke-width="5"/><defs><clipPath id="clip0_371_791"><rect x="3" y="3" width="1588" height="819" rx="16" fill="white"/></clipPath></defs></svg>