<svg width="352" height="185" viewBox="0 0 352 185" fill="none" xmlns="http://www.w3.org/2000/svg"><rect width="352" height="185" fill="white"/><rect x="28.6875" y="21" width="127.5" height="40" rx="4" fill="#071D41"/><path d="M43.9609 31.7031C44.1563 31.2734 44.5859 31 45.0547 31H49.7813C50.25 31 50.6797 31.2734 50.875 31.7031L51.1875 32.25H54.9375C55.6016 32.25 56.1875 32.8359 56.1875 33.5C56.1875 34.2031 55.6016 34.75 54.9375 34.75H39.9375C39.2344 34.75 38.6875 34.2031 38.6875 33.5C38.6875 32.8359 39.2344 32.25 39.9375 32.25H43.6875L43.9609 31.7031ZM39.8984 36H54.9375V48.5C54.9375 49.9063 53.8047 51 52.4375 51H42.3984C41.0312 51 39.8984 49.9063 39.8984 48.5V36ZM43.0234 39.125V47.875C43.0234 48.2266 43.3359 48.5 43.6484 48.5C44 48.5 44.2734 48.2266 44.2734 47.875V39.125C44.2734 38.8125 44 38.5 43.6484 38.5C43.3359 38.5 43.0234 38.8125 43.0234 39.125ZM46.7734 39.125V47.875C46.7734 48.2266 47.0859 48.5 47.3984 48.5C47.75 48.5 48.0625 48.2266 48.0625 47.875V39.125C48.0625 38.8125 47.75 38.5 47.3984 38.5C47.0859 38.5 46.7734 38.8125 46.7734 39.125ZM50.5625 39.125V47.875C50.5625 48.2266 50.8359 48.5 51.1875 48.5C51.5 48.5 51.8125 48.2266 51.8125 47.875V39.125C51.8125 38.8125 51.5 38.5 51.1875 38.5C50.8359 38.5 50.5625 38.8125 50.5625 39.125Z" fill="white"/><path d="M71.3074 36.8807C73.1602 35.028 76.204 35.028 78.0568 36.8807C79.7111 38.535 79.9427 41.1487 78.5862 43.0677L78.5531 43.1008C78.2222 43.597 77.5605 43.6963 77.0643 43.3654C76.6011 43.0015 76.4687 42.3398 76.8327 41.8766L76.8657 41.8435C77.6267 40.7517 77.4944 39.329 76.568 38.4027C75.5423 37.3439 73.855 37.3439 72.7963 38.4027L69.0907 42.1082C68.032 43.1338 68.032 44.8212 69.0907 45.8799C70.0171 46.8063 71.4729 46.9055 72.5316 46.1777L72.5647 46.1115C73.0609 45.7807 73.7227 45.8799 74.0535 46.3762C74.3844 46.8394 74.2851 47.5011 73.8219 47.865L73.7557 47.8981C71.8368 49.2546 69.2562 49.023 67.6019 47.3687C65.716 45.516 65.716 42.4721 67.6019 40.6194L71.3074 36.8807ZM81.0676 45.0859C79.2148 46.9717 76.171 46.9717 74.3182 45.0859C72.6639 43.4316 72.4323 40.851 73.7888 38.932L73.8219 38.8989C74.1528 38.4027 74.8145 38.3034 75.3107 38.6342C75.7739 38.9651 75.9063 39.6268 75.5423 40.1231L75.5093 40.1562C74.7483 41.2149 74.8806 42.6706 75.807 43.597C76.8327 44.6558 78.52 44.6558 79.5787 43.597L83.2843 39.8915C84.343 38.8328 84.343 37.1454 83.2843 36.1198C82.3579 35.1934 80.9021 35.061 79.8434 35.822L79.8103 35.8551C79.314 36.219 78.6523 36.0867 78.3215 35.6235C77.9906 35.1603 78.0899 34.4986 78.5531 34.1347L78.6193 34.1016C80.5382 32.7451 83.1188 32.9767 84.7731 34.6309C86.659 36.4837 86.659 39.5275 84.7731 41.3803L81.0676 45.0859Z" fill="white"/><path d="M116.188 35.2857C116.188 37.6518 114.268 39.5714 111.902 39.5714C110.741 39.5714 109.67 39.125 108.911 38.4107L104.714 40.5089C104.714 40.6429 104.714 40.8214 104.714 41C104.714 41.1786 104.714 41.3571 104.714 41.5357L108.911 43.6339C109.67 42.9196 110.741 42.4286 111.902 42.4286C114.268 42.4286 116.188 44.3482 116.188 46.7143C116.188 49.0804 114.268 51 111.902 51C109.491 51 107.616 49.0804 107.616 46.7143C107.616 46.5357 107.616 46.3571 107.616 46.2232L103.42 44.125C102.661 44.8393 101.589 45.2857 100.473 45.2857C98.0625 45.2857 96.1875 43.3661 96.1875 41C96.1875 38.6339 98.0625 36.7143 100.473 36.7143C101.589 36.7143 102.661 37.2054 103.42 37.9196L107.616 35.8214C107.616 35.6429 107.616 35.4643 107.616 35.2857C107.616 32.9196 109.491 31 111.902 31C114.268 31 116.188 32.9196 116.188 35.2857Z" fill="#E66F0E"/><path d="M127.438 47.875V37.25H144.938V47.875C144.938 48.9297 144.078 49.75 143.062 49.75H129.312C128.258 49.75 127.438 48.9297 127.438 47.875ZM132.438 40.2187V40.5312C132.438 40.8047 132.633 41 132.906 41H139.469C139.703 41 139.938 40.8047 139.938 40.5312V40.2187C139.938 39.9844 139.703 39.75 139.469 39.75H132.906C132.633 39.75 132.438 39.9844 132.438 40.2187ZM144.938 32.25C145.602 32.25 146.188 32.8359 146.188 33.5V35.375C146.188 35.7266 145.875 36 145.562 36H126.812C126.461 36 126.188 35.7266 126.188 35.375V33.5C126.188 32.8359 126.734 32.25 127.438 32.25H144.938Z" fill="white"/><path d="M221.953 106.93C221.953 106.352 222.057 105.8 222.266 105.274C222.474 104.743 222.758 104.282 223.117 103.891C223.477 103.495 223.914 103.18 224.43 102.946C224.945 102.711 225.495 102.594 226.078 102.594C226.859 102.594 227.568 102.792 228.203 103.188C228.844 103.584 229.341 104.112 229.695 104.774C230.049 105.435 230.227 106.154 230.227 106.93C230.227 107.701 230.049 108.415 229.695 109.071C229.346 109.722 228.852 110.245 228.211 110.641C227.576 111.032 226.865 111.227 226.078 111.227C225.292 111.227 224.581 111.032 223.945 110.641C223.31 110.245 222.818 109.722 222.469 109.071C222.125 108.415 221.953 107.701 221.953 106.93ZM223.938 109.305C224.531 109.951 225.245 110.274 226.078 110.274C226.911 110.274 227.625 109.946 228.219 109.29C228.818 108.633 229.117 107.842 229.117 106.915C229.117 105.987 228.818 105.196 228.219 104.54C227.625 103.878 226.911 103.547 226.078 103.547C225.536 103.547 225.034 103.698 224.57 104C224.107 104.303 223.737 104.717 223.461 105.243C223.19 105.764 223.055 106.331 223.055 106.946C223.055 107.873 223.349 108.659 223.938 109.305Z" fill="black"/><path d="M212.016 106.93C212.016 106.149 212.177 105.43 212.5 104.774C212.823 104.112 213.276 103.584 213.859 103.188C214.448 102.792 215.102 102.594 215.82 102.594C216.482 102.594 217.089 102.771 217.641 103.125C218.198 103.474 218.643 103.925 218.977 104.477V99.3911H220.062V109.758C220.062 109.909 220.091 110.019 220.148 110.086C220.211 110.154 220.31 110.193 220.445 110.204V111.071C220.216 111.102 220.052 111.112 219.953 111.102C219.724 111.086 219.523 110.998 219.352 110.836C219.185 110.67 219.102 110.482 219.102 110.274V109.454C218.773 109.995 218.328 110.428 217.766 110.75C217.203 111.068 216.615 111.227 216 111.227C215.438 111.227 214.904 111.11 214.398 110.875C213.898 110.636 213.477 110.318 213.133 109.922C212.789 109.527 212.516 109.068 212.312 108.547C212.115 108.027 212.016 107.487 212.016 106.93ZM218.977 108.204V105.633C218.768 105.06 218.38 104.571 217.812 104.165C217.245 103.753 216.672 103.547 216.094 103.547C215.521 103.547 215.003 103.711 214.539 104.04C214.081 104.368 213.732 104.787 213.492 105.297C213.253 105.808 213.133 106.352 213.133 106.93C213.133 107.524 213.268 108.079 213.539 108.594C213.815 109.105 214.193 109.514 214.672 109.821C215.151 110.123 215.674 110.274 216.242 110.274C216.81 110.274 217.385 110.066 217.969 109.649C218.552 109.232 218.888 108.75 218.977 108.204Z" fill="black"/><path d="M203.188 108.672C203.188 107.907 203.51 107.292 204.156 106.829C204.807 106.36 205.656 106.125 206.703 106.125C207.599 106.125 208.409 106.253 209.133 106.508V105.805C209.133 105.097 208.922 104.537 208.5 104.125C208.083 103.709 207.51 103.5 206.781 103.5C205.943 103.5 205.052 103.826 204.109 104.477L203.695 103.711C204.779 102.967 205.846 102.594 206.898 102.594C207.924 102.594 208.734 102.889 209.328 103.477C209.927 104.066 210.227 104.873 210.227 105.899V109.758C210.227 109.909 210.258 110.019 210.32 110.086C210.383 110.154 210.484 110.193 210.625 110.204V111.071C210.365 111.102 210.198 111.112 210.125 111.102C209.87 111.097 209.669 111.019 209.523 110.868C209.383 110.711 209.307 110.534 209.297 110.336L209.281 109.727C208.911 110.196 208.43 110.563 207.836 110.829C207.242 111.094 206.63 111.227 206 111.227C205.193 111.227 204.521 110.982 203.984 110.493C203.453 109.998 203.188 109.391 203.188 108.672ZM208.766 109.313C209.01 109.037 209.133 108.769 209.133 108.508V107.297C208.409 107.006 207.643 106.86 206.836 106.86C206.049 106.86 205.417 107.019 204.938 107.336C204.464 107.649 204.227 108.068 204.227 108.594C204.227 109.084 204.411 109.508 204.781 109.868C205.151 110.222 205.643 110.399 206.258 110.399C206.773 110.399 207.258 110.3 207.711 110.102C208.164 109.899 208.516 109.636 208.766 109.313Z" fill="black"/><path d="M201.539 111.071H200.445V106.415C200.445 104.529 199.807 103.586 198.531 103.586C197.906 103.586 197.31 103.816 196.742 104.274C196.18 104.732 195.805 105.297 195.617 105.969V111.071H194.531V99.3911H195.617V104.625C195.945 104 196.404 103.506 196.992 103.141C197.581 102.777 198.216 102.594 198.898 102.594C199.81 102.594 200.477 102.912 200.898 103.547C201.326 104.178 201.539 105.058 201.539 106.188V111.071Z" fill="black"/><path d="M190.219 99.3911H191.305V109.18C191.305 109.566 191.37 109.831 191.5 109.977C191.63 110.118 191.82 110.188 192.07 110.188C192.424 110.188 192.784 110.125 193.148 110L193.336 110.875C193.133 110.954 192.885 111.021 192.594 111.079C192.302 111.136 192.049 111.165 191.836 111.165C191.336 111.165 190.94 111.021 190.648 110.735C190.362 110.443 190.219 110.047 190.219 109.547V99.3911Z" fill="black"/><path d="M186.688 100.993V99.3911H187.773V100.993H186.688ZM186.688 111.071V102.735H187.773V111.071H186.688Z" fill="black"/><path d="M185.328 110.672C185.323 110.678 185.268 110.704 185.164 110.75C185.065 110.792 184.982 110.826 184.914 110.852C184.852 110.878 184.755 110.915 184.625 110.961C184.495 111.003 184.375 111.037 184.266 111.063C184.156 111.089 184.026 111.112 183.875 111.133C183.724 111.154 183.578 111.165 183.438 111.165C182.938 111.165 182.518 111.027 182.18 110.75C181.846 110.469 181.68 110.073 181.68 109.563V103.602H180.523V102.735H181.68V99.9224H182.766V102.735H184.688V103.602H182.766V109.266C182.786 109.558 182.891 109.779 183.078 109.93C183.266 110.081 183.497 110.157 183.773 110.157C184.227 110.157 184.648 110.034 185.039 109.79L185.328 110.672Z" fill="black"/><path d="M179.875 103.696C179.141 103.722 178.5 103.928 177.953 104.313C177.406 104.693 177.023 105.217 176.805 105.883V111.071H175.719V102.735H176.742V104.735C177.029 104.152 177.409 103.68 177.883 103.321C178.357 102.956 178.862 102.75 179.398 102.704C179.607 102.688 179.766 102.688 179.875 102.704V103.696Z" fill="black"/><path d="M166.328 108.672C166.328 107.907 166.651 107.292 167.297 106.829C167.948 106.36 168.797 106.125 169.844 106.125C170.74 106.125 171.549 106.253 172.273 106.508V105.805C172.273 105.097 172.062 104.537 171.641 104.125C171.224 103.709 170.651 103.5 169.922 103.5C169.083 103.5 168.193 103.826 167.25 104.477L166.836 103.711C167.919 102.967 168.987 102.594 170.039 102.594C171.065 102.594 171.875 102.889 172.469 103.477C173.068 104.066 173.367 104.873 173.367 105.899V109.758C173.367 109.909 173.398 110.019 173.461 110.086C173.523 110.154 173.625 110.193 173.766 110.204V111.071C173.505 111.102 173.339 111.112 173.266 111.102C173.01 111.097 172.81 111.019 172.664 110.868C172.523 110.711 172.448 110.534 172.438 110.336L172.422 109.727C172.052 110.196 171.57 110.563 170.977 110.829C170.383 111.094 169.771 111.227 169.141 111.227C168.333 111.227 167.661 110.982 167.125 110.493C166.594 109.998 166.328 109.391 166.328 108.672ZM171.906 109.313C172.151 109.037 172.273 108.769 172.273 108.508V107.297C171.549 107.006 170.784 106.86 169.977 106.86C169.19 106.86 168.557 107.019 168.078 107.336C167.604 107.649 167.367 108.068 167.367 108.594C167.367 109.084 167.552 109.508 167.922 109.868C168.292 110.222 168.784 110.399 169.398 110.399C169.914 110.399 170.398 110.3 170.852 110.102C171.305 109.899 171.656 109.636 171.906 109.313Z" fill="black"/><path d="M158.211 109.344V114.477H157.125V102.735H158.102V104.352C158.445 103.821 158.893 103.396 159.445 103.079C159.997 102.756 160.583 102.594 161.203 102.594C161.943 102.594 162.617 102.8 163.227 103.211C163.841 103.623 164.315 104.159 164.648 104.821C164.987 105.477 165.156 106.175 165.156 106.915C165.156 107.696 164.997 108.415 164.68 109.071C164.367 109.727 163.919 110.25 163.336 110.641C162.758 111.032 162.104 111.227 161.375 111.227C160.708 111.227 160.099 111.055 159.547 110.711C159 110.362 158.555 109.907 158.211 109.344ZM164.047 106.915C164.047 106.008 163.745 105.222 163.141 104.555C162.536 103.883 161.805 103.547 160.945 103.547C160.581 103.547 160.198 103.641 159.797 103.829C159.396 104.011 159.044 104.266 158.742 104.594C158.44 104.922 158.263 105.264 158.211 105.618V108.172C158.461 108.782 158.849 109.284 159.375 109.68C159.901 110.076 160.466 110.274 161.07 110.274C161.648 110.274 162.169 110.112 162.633 109.79C163.096 109.461 163.448 109.045 163.688 108.54C163.927 108.029 164.047 107.487 164.047 106.915Z" fill="black"/><path d="M154.82 111.071H153.734V106.415C153.734 104.529 153.12 103.586 151.891 103.586C151.266 103.586 150.703 103.808 150.203 104.25C149.708 104.693 149.359 105.271 149.156 105.985V111.071H148.07V106.415C148.07 105.435 147.919 104.719 147.617 104.266C147.32 103.813 146.862 103.586 146.242 103.586C145.622 103.586 145.062 103.805 144.562 104.243C144.068 104.68 143.716 105.256 143.508 105.969V111.071H142.422V102.735H143.414V104.625C143.758 103.98 144.206 103.48 144.758 103.125C145.315 102.771 145.927 102.594 146.594 102.594C147.276 102.594 147.833 102.79 148.266 103.18C148.698 103.571 148.964 104.089 149.062 104.735C149.839 103.308 150.909 102.594 152.273 102.594C153.169 102.594 153.818 102.907 154.219 103.532C154.62 104.152 154.82 105.037 154.82 106.188V111.071Z" fill="black"/><path d="M132.328 106.93C132.328 106.352 132.432 105.8 132.641 105.274C132.849 104.743 133.133 104.282 133.492 103.891C133.852 103.495 134.289 103.18 134.805 102.946C135.32 102.711 135.87 102.594 136.453 102.594C137.234 102.594 137.943 102.792 138.578 103.188C139.219 103.584 139.716 104.112 140.07 104.774C140.424 105.435 140.602 106.154 140.602 106.93C140.602 107.701 140.424 108.415 140.07 109.071C139.721 109.722 139.227 110.245 138.586 110.641C137.951 111.032 137.24 111.227 136.453 111.227C135.667 111.227 134.956 111.032 134.32 110.641C133.685 110.245 133.193 109.722 132.844 109.071C132.5 108.415 132.328 107.701 132.328 106.93ZM134.312 109.305C134.906 109.951 135.62 110.274 136.453 110.274C137.286 110.274 138 109.946 138.594 109.29C139.193 108.633 139.492 107.842 139.492 106.915C139.492 105.987 139.193 105.196 138.594 104.54C138 103.878 137.286 103.547 136.453 103.547C135.911 103.547 135.409 103.698 134.945 104C134.482 104.303 134.112 104.717 133.836 105.243C133.565 105.764 133.43 106.331 133.43 106.946C133.43 107.873 133.724 108.659 134.312 109.305Z" fill="black"/><path d="M126.797 99.6489C127.776 99.6489 128.63 99.8755 129.359 100.329C130.094 100.777 130.638 101.375 130.992 102.125L130.109 102.672C129.875 102.193 129.565 101.797 129.18 101.485C128.794 101.172 128.401 100.956 128 100.836C127.599 100.717 127.177 100.657 126.734 100.657C126.208 100.657 125.716 100.748 125.258 100.93C124.799 101.107 124.404 101.349 124.07 101.657C123.742 101.964 123.458 102.321 123.219 102.727C122.984 103.128 122.81 103.555 122.695 104.008C122.581 104.456 122.523 104.912 122.523 105.375C122.523 106.209 122.708 106.993 123.078 107.727C123.448 108.456 123.961 109.045 124.617 109.493C125.279 109.935 126 110.157 126.781 110.157C127.229 110.157 127.669 110.086 128.102 109.946C128.534 109.8 128.948 109.566 129.344 109.243C129.745 108.915 130.06 108.516 130.289 108.047L131.211 108.524C130.977 109.066 130.609 109.542 130.109 109.954C129.615 110.36 129.073 110.665 128.484 110.868C127.901 111.066 127.312 111.165 126.719 111.165C126.115 111.165 125.534 111.055 124.977 110.836C124.419 110.618 123.927 110.318 123.5 109.938C123.073 109.553 122.701 109.115 122.383 108.625C122.065 108.131 121.823 107.599 121.656 107.032C121.49 106.459 121.406 105.886 121.406 105.313C121.406 104.62 121.529 103.941 121.773 103.274C122.018 102.607 122.362 102.003 122.805 101.461C123.253 100.92 123.823 100.482 124.516 100.149C125.214 99.8156 125.974 99.6489 126.797 99.6489Z" fill="black"/><path d="M299.621 131.379C299.621 130.801 299.725 130.249 299.934 129.723C300.142 129.191 300.426 128.73 300.785 128.34C301.145 127.944 301.582 127.629 302.098 127.395C302.613 127.16 303.163 127.043 303.746 127.043C304.527 127.043 305.236 127.241 305.871 127.637C306.512 128.033 307.009 128.561 307.363 129.223C307.717 129.884 307.895 130.603 307.895 131.379C307.895 132.15 307.717 132.863 307.363 133.52C307.014 134.171 306.52 134.694 305.879 135.09C305.243 135.48 304.533 135.676 303.746 135.676C302.96 135.676 302.249 135.48 301.613 135.09C300.978 134.694 300.486 134.171 300.137 133.52C299.793 132.863 299.621 132.15 299.621 131.379ZM301.605 133.754C302.199 134.4 302.913 134.723 303.746 134.723C304.579 134.723 305.293 134.395 305.887 133.738C306.486 133.082 306.785 132.29 306.785 131.363C306.785 130.436 306.486 129.645 305.887 128.988C305.293 128.327 304.579 127.996 303.746 127.996C303.204 127.996 302.702 128.147 302.238 128.449C301.775 128.751 301.405 129.165 301.129 129.691C300.858 130.212 300.723 130.78 300.723 131.395C300.723 132.322 301.017 133.108 301.605 133.754Z" fill="black"/><path d="M295.887 123.84H296.973V133.629C296.973 134.014 297.038 134.28 297.168 134.426C297.298 134.566 297.488 134.637 297.738 134.637C298.092 134.637 298.452 134.574 298.816 134.449L299.004 135.324C298.801 135.402 298.553 135.47 298.262 135.527C297.97 135.585 297.717 135.613 297.504 135.613C297.004 135.613 296.608 135.47 296.316 135.184C296.03 134.892 295.887 134.496 295.887 133.996V123.84Z" fill="black"/><path d="M286.254 132.082V127.184H287.348V131.887C287.348 133.777 287.991 134.723 289.277 134.723C289.923 134.723 290.525 134.514 291.082 134.098C291.639 133.676 292.04 133.121 292.285 132.434V127.184H293.379V134.207C293.379 134.358 293.408 134.467 293.465 134.535C293.527 134.603 293.626 134.642 293.762 134.652V135.52C293.59 135.54 293.418 135.551 293.246 135.551C293.022 135.535 292.835 135.452 292.684 135.301C292.538 135.15 292.46 134.967 292.449 134.754L292.418 133.629C292.064 134.27 291.574 134.772 290.949 135.137C290.324 135.496 289.645 135.676 288.91 135.676C288.04 135.676 287.379 135.374 286.926 134.77C286.478 134.16 286.254 133.264 286.254 132.082Z" fill="black"/><path d="M281.168 135.676C280.376 135.676 279.658 135.478 279.012 135.082C278.371 134.686 277.871 134.158 277.512 133.496C277.158 132.835 276.98 132.111 276.98 131.324C276.98 130.538 277.155 129.819 277.504 129.168C277.853 128.517 278.348 128.001 278.988 127.621C279.629 127.236 280.35 127.043 281.152 127.043C281.928 127.043 282.613 127.22 283.207 127.574C283.801 127.928 284.249 128.413 284.551 129.027L283.488 129.363C283.259 128.936 282.931 128.603 282.504 128.363C282.082 128.118 281.616 127.996 281.105 127.996C280.251 127.996 279.533 128.314 278.949 128.949C278.371 129.585 278.082 130.376 278.082 131.324C278.082 132.262 278.382 133.064 278.98 133.73C279.579 134.392 280.293 134.723 281.121 134.723C281.652 134.723 282.158 134.582 282.637 134.301C283.121 134.014 283.428 133.678 283.559 133.293L284.629 133.613C284.395 134.217 283.957 134.712 283.316 135.098C282.681 135.483 281.965 135.676 281.168 135.676Z" fill="black"/><path d="M275.238 135.52H274.145V130.863C274.145 129.884 273.999 129.168 273.707 128.715C273.421 128.262 272.97 128.035 272.355 128.035C271.704 128.035 271.085 128.264 270.496 128.723C269.908 129.176 269.514 129.741 269.316 130.418V135.52H268.23V127.184H269.223V129.074C269.561 128.46 270.048 127.967 270.684 127.598C271.324 127.228 272.014 127.043 272.754 127.043C273.207 127.043 273.595 127.126 273.918 127.293C274.246 127.454 274.504 127.697 274.691 128.02C274.884 128.342 275.022 128.717 275.105 129.145C275.194 129.572 275.238 130.069 275.238 130.637V135.52Z" fill="black"/><path d="M265.652 125.598L264.934 125.324L265.879 123.84H267.027L265.652 125.598ZM264.746 135.52V127.184H265.832V135.52H264.746Z" fill="black"/><path d="M258.691 135.52L255.316 127.184H256.449L259.301 134.434L262.16 127.184H263.238L259.863 135.52H258.691Z" fill="black"/><path d="M254.824 124.16L247.27 135.52H246.035L253.59 124.16H254.824Z" fill="black"/><path d="M237.418 133.121C237.418 132.355 237.741 131.741 238.387 131.277C239.038 130.809 239.887 130.574 240.934 130.574C241.829 130.574 242.639 130.702 243.363 130.957V130.254C243.363 129.546 243.152 128.986 242.73 128.574C242.314 128.158 241.741 127.949 241.012 127.949C240.173 127.949 239.283 128.275 238.34 128.926L237.926 128.16C239.009 127.415 240.077 127.043 241.129 127.043C242.155 127.043 242.965 127.337 243.559 127.926C244.158 128.514 244.457 129.322 244.457 130.348V134.207C244.457 134.358 244.488 134.467 244.551 134.535C244.613 134.603 244.715 134.642 244.855 134.652V135.52C244.595 135.551 244.428 135.561 244.355 135.551C244.1 135.546 243.9 135.467 243.754 135.316C243.613 135.16 243.538 134.983 243.527 134.785L243.512 134.176C243.142 134.645 242.66 135.012 242.066 135.277C241.473 135.543 240.861 135.676 240.23 135.676C239.423 135.676 238.751 135.431 238.215 134.941C237.684 134.447 237.418 133.84 237.418 133.121ZM242.996 133.762C243.241 133.486 243.363 133.217 243.363 132.957V131.746C242.639 131.454 241.874 131.309 241.066 131.309C240.28 131.309 239.647 131.467 239.168 131.785C238.694 132.098 238.457 132.517 238.457 133.043C238.457 133.533 238.642 133.957 239.012 134.316C239.382 134.671 239.874 134.848 240.488 134.848C241.004 134.848 241.488 134.749 241.941 134.551C242.395 134.348 242.746 134.085 242.996 133.762Z" fill="black"/><path d="M227.574 131.379C227.574 130.598 227.736 129.879 228.059 129.223C228.382 128.561 228.835 128.033 229.418 127.637C230.007 127.241 230.66 127.043 231.379 127.043C232.04 127.043 232.647 127.22 233.199 127.574C233.757 127.923 234.202 128.374 234.535 128.926V123.84H235.621V134.207C235.621 134.358 235.65 134.467 235.707 134.535C235.77 134.603 235.868 134.642 236.004 134.652V135.52C235.775 135.551 235.611 135.561 235.512 135.551C235.283 135.535 235.082 135.447 234.91 135.285C234.743 135.118 234.66 134.931 234.66 134.723V133.902C234.332 134.444 233.887 134.876 233.324 135.199C232.762 135.517 232.173 135.676 231.559 135.676C230.996 135.676 230.462 135.559 229.957 135.324C229.457 135.085 229.035 134.767 228.691 134.371C228.348 133.975 228.074 133.517 227.871 132.996C227.673 132.475 227.574 131.936 227.574 131.379ZM234.535 132.652V130.082C234.327 129.509 233.939 129.02 233.371 128.613C232.803 128.202 232.23 127.996 231.652 127.996C231.079 127.996 230.561 128.16 230.098 128.488C229.639 128.816 229.29 129.236 229.051 129.746C228.811 130.257 228.691 130.801 228.691 131.379C228.691 131.973 228.827 132.527 229.098 133.043C229.374 133.553 229.751 133.962 230.23 134.27C230.71 134.572 231.233 134.723 231.801 134.723C232.368 134.723 232.944 134.514 233.527 134.098C234.111 133.681 234.447 133.199 234.535 132.652Z" fill="black"/><path d="M218.746 133.121C218.746 132.355 219.069 131.741 219.715 131.277C220.366 130.809 221.215 130.574 222.262 130.574C223.158 130.574 223.967 130.702 224.691 130.957V130.254C224.691 129.546 224.48 128.986 224.059 128.574C223.642 128.158 223.069 127.949 222.34 127.949C221.501 127.949 220.611 128.275 219.668 128.926L219.254 128.16C220.337 127.415 221.405 127.043 222.457 127.043C223.483 127.043 224.293 127.337 224.887 127.926C225.486 128.514 225.785 129.322 225.785 130.348V134.207C225.785 134.358 225.816 134.467 225.879 134.535C225.941 134.603 226.043 134.642 226.184 134.652V135.52C225.923 135.551 225.757 135.561 225.684 135.551C225.428 135.546 225.228 135.467 225.082 135.316C224.941 135.16 224.866 134.983 224.855 134.785L224.84 134.176C224.47 134.645 223.988 135.012 223.395 135.277C222.801 135.543 222.189 135.676 221.559 135.676C220.751 135.676 220.079 135.431 219.543 134.941C219.012 134.447 218.746 133.84 218.746 133.121ZM224.324 133.762C224.569 133.486 224.691 133.217 224.691 132.957V131.746C223.967 131.454 223.202 131.309 222.395 131.309C221.608 131.309 220.975 131.467 220.496 131.785C220.022 132.098 219.785 132.517 219.785 133.043C219.785 133.533 219.97 133.957 220.34 134.316C220.71 134.671 221.202 134.848 221.816 134.848C222.332 134.848 222.816 134.749 223.27 134.551C223.723 134.348 224.074 134.085 224.324 133.762Z" fill="black"/><path d="M218.059 135.121C218.053 135.126 217.999 135.152 217.895 135.199C217.796 135.241 217.712 135.275 217.645 135.301C217.582 135.327 217.486 135.363 217.355 135.41C217.225 135.452 217.105 135.486 216.996 135.512C216.887 135.538 216.757 135.561 216.605 135.582C216.454 135.603 216.309 135.613 216.168 135.613C215.668 135.613 215.249 135.475 214.91 135.199C214.577 134.918 214.41 134.522 214.41 134.012V128.051H213.254V127.184H214.41V124.371H215.496V127.184H217.418V128.051H215.496V133.715C215.517 134.007 215.621 134.228 215.809 134.379C215.996 134.53 216.228 134.605 216.504 134.605C216.957 134.605 217.379 134.483 217.77 134.238L218.059 135.121Z" fill="black"/><path d="M211.816 135.52H210.723V130.863C210.723 129.884 210.577 129.168 210.285 128.715C209.999 128.262 209.548 128.035 208.934 128.035C208.283 128.035 207.663 128.264 207.074 128.723C206.486 129.176 206.092 129.741 205.895 130.418V135.52H204.809V127.184H205.801V129.074C206.139 128.46 206.626 127.967 207.262 127.598C207.902 127.228 208.592 127.043 209.332 127.043C209.785 127.043 210.173 127.126 210.496 127.293C210.824 127.454 211.082 127.697 211.27 128.02C211.462 128.342 211.6 128.717 211.684 129.145C211.772 129.572 211.816 130.069 211.816 130.637V135.52Z" fill="black"/><path d="M195.223 132.082V127.184H196.316V131.887C196.316 133.777 196.96 134.723 198.246 134.723C198.892 134.723 199.493 134.514 200.051 134.098C200.608 133.676 201.009 133.121 201.254 132.434V127.184H202.348V134.207C202.348 134.358 202.376 134.467 202.434 134.535C202.496 134.603 202.595 134.642 202.73 134.652V135.52C202.559 135.54 202.387 135.551 202.215 135.551C201.991 135.535 201.803 135.452 201.652 135.301C201.507 135.15 201.428 134.967 201.418 134.754L201.387 133.629C201.033 134.27 200.543 134.772 199.918 135.137C199.293 135.496 198.613 135.676 197.879 135.676C197.009 135.676 196.348 135.374 195.895 134.77C195.447 134.16 195.223 133.264 195.223 132.082Z" fill="black"/><path d="M191.824 125.441V123.84H192.91V125.441H191.824ZM188.637 137.793L189.168 137.059C189.449 137.314 189.837 137.441 190.332 137.441C190.717 137.441 191.061 137.296 191.363 137.004C191.671 136.717 191.824 136.366 191.824 135.949V127.184H192.91V135.887C192.91 136.6 192.663 137.199 192.168 137.684C191.678 138.173 191.111 138.418 190.465 138.418C189.694 138.418 189.085 138.21 188.637 137.793Z" fill="black"/><path d="M185.332 135.52H184.246V130.863C184.246 128.978 183.632 128.035 182.402 128.035C181.777 128.035 181.215 128.257 180.715 128.699C180.22 129.142 179.871 129.72 179.668 130.434V135.52H178.582V130.863C178.582 129.884 178.431 129.168 178.129 128.715C177.832 128.262 177.374 128.035 176.754 128.035C176.134 128.035 175.574 128.254 175.074 128.691C174.579 129.129 174.228 129.704 174.02 130.418V135.52H172.934V127.184H173.926V129.074C174.27 128.428 174.717 127.928 175.27 127.574C175.827 127.22 176.439 127.043 177.105 127.043C177.788 127.043 178.345 127.238 178.777 127.629C179.21 128.02 179.475 128.538 179.574 129.184C180.35 127.757 181.421 127.043 182.785 127.043C183.681 127.043 184.329 127.355 184.73 127.98C185.132 128.6 185.332 129.486 185.332 130.637V135.52Z" fill="black"/><path d="M167.137 135.676C166.35 135.676 165.634 135.478 164.988 135.082C164.348 134.686 163.85 134.158 163.496 133.496C163.142 132.829 162.965 132.105 162.965 131.324C162.965 130.553 163.142 129.842 163.496 129.191C163.85 128.535 164.348 128.014 164.988 127.629C165.629 127.238 166.34 127.043 167.121 127.043C167.913 127.043 168.626 127.241 169.262 127.637C169.902 128.027 170.395 128.548 170.738 129.199C171.082 129.845 171.254 130.548 171.254 131.309C171.254 131.548 171.249 131.694 171.238 131.746H164.098C164.165 132.637 164.496 133.376 165.09 133.965C165.684 134.553 166.384 134.848 167.191 134.848C167.738 134.848 168.251 134.71 168.73 134.434C169.21 134.152 169.548 133.788 169.746 133.34L170.691 133.598C170.431 134.212 169.973 134.712 169.316 135.098C168.665 135.483 167.939 135.676 167.137 135.676ZM164.066 130.957H170.23C170.163 130.061 169.835 129.327 169.246 128.754C168.663 128.176 167.96 127.887 167.137 127.887C166.314 127.887 165.608 128.176 165.02 128.754C164.436 129.332 164.118 130.066 164.066 130.957Z" fill="black"/><path d="M149.371 131.379C149.371 130.801 149.475 130.249 149.684 129.723C149.892 129.191 150.176 128.73 150.535 128.34C150.895 127.944 151.332 127.629 151.848 127.395C152.363 127.16 152.913 127.043 153.496 127.043C154.277 127.043 154.986 127.241 155.621 127.637C156.262 128.033 156.759 128.561 157.113 129.223C157.467 129.884 157.645 130.603 157.645 131.379C157.645 132.15 157.467 132.863 157.113 133.52C156.764 134.171 156.27 134.694 155.629 135.09C154.993 135.48 154.283 135.676 153.496 135.676C152.71 135.676 151.999 135.48 151.363 135.09C150.728 134.694 150.236 134.171 149.887 133.52C149.543 132.863 149.371 132.15 149.371 131.379ZM151.355 133.754C151.949 134.4 152.663 134.723 153.496 134.723C154.329 134.723 155.043 134.395 155.637 133.738C156.236 133.082 156.535 132.29 156.535 131.363C156.535 130.436 156.236 129.645 155.637 128.988C155.043 128.327 154.329 127.996 153.496 127.996C152.954 127.996 152.452 128.147 151.988 128.449C151.525 128.751 151.155 129.165 150.879 129.691C150.608 130.212 150.473 130.78 150.473 131.395C150.473 132.322 150.767 133.108 151.355 133.754Z" fill="black"/><path d="M139.434 131.379C139.434 130.598 139.595 129.879 139.918 129.223C140.241 128.561 140.694 128.033 141.277 127.637C141.866 127.241 142.52 127.043 143.238 127.043C143.9 127.043 144.507 127.22 145.059 127.574C145.616 127.923 146.061 128.374 146.395 128.926V123.84H147.48V134.207C147.48 134.358 147.509 134.467 147.566 134.535C147.629 134.603 147.728 134.642 147.863 134.652V135.52C147.634 135.551 147.47 135.561 147.371 135.551C147.142 135.535 146.941 135.447 146.77 135.285C146.603 135.118 146.52 134.931 146.52 134.723V133.902C146.191 134.444 145.746 134.876 145.184 135.199C144.621 135.517 144.033 135.676 143.418 135.676C142.855 135.676 142.322 135.559 141.816 135.324C141.316 135.085 140.895 134.767 140.551 134.371C140.207 133.975 139.934 133.517 139.73 132.996C139.533 132.475 139.434 131.936 139.434 131.379ZM146.395 132.652V130.082C146.186 129.509 145.798 129.02 145.23 128.613C144.663 128.202 144.09 127.996 143.512 127.996C142.939 127.996 142.421 128.16 141.957 128.488C141.499 128.816 141.15 129.236 140.91 129.746C140.671 130.257 140.551 130.801 140.551 131.379C140.551 131.973 140.686 132.527 140.957 133.043C141.233 133.553 141.611 133.962 142.09 134.27C142.569 134.572 143.092 134.723 143.66 134.723C144.228 134.723 144.803 134.514 145.387 134.098C145.97 133.681 146.306 133.199 146.395 132.652Z" fill="black"/><path d="M136.512 125.441V123.84H137.598V125.441H136.512ZM136.512 135.52V127.184H137.598V135.52H136.512Z" fill="black"/><path d="M130.457 135.52L127.082 127.184H128.215L131.066 134.434L133.926 127.184H135.004L131.629 135.52H130.457Z" fill="black"/><path d="M123.949 123.84H125.035V133.629C125.035 134.014 125.1 134.28 125.23 134.426C125.361 134.566 125.551 134.637 125.801 134.637C126.155 134.637 126.514 134.574 126.879 134.449L127.066 135.324C126.863 135.402 126.616 135.47 126.324 135.527C126.033 135.585 125.78 135.613 125.566 135.613C125.066 135.613 124.671 135.47 124.379 135.184C124.092 134.892 123.949 134.496 123.949 133.996V123.84Z" fill="black"/><path d="M113.809 131.379C113.809 130.801 113.913 130.249 114.121 129.723C114.329 129.191 114.613 128.73 114.973 128.34C115.332 127.944 115.77 127.629 116.285 127.395C116.801 127.16 117.35 127.043 117.934 127.043C118.715 127.043 119.423 127.241 120.059 127.637C120.699 128.033 121.197 128.561 121.551 129.223C121.905 129.884 122.082 130.603 122.082 131.379C122.082 132.15 121.905 132.863 121.551 133.52C121.202 134.171 120.707 134.694 120.066 135.09C119.431 135.48 118.72 135.676 117.934 135.676C117.147 135.676 116.436 135.48 115.801 135.09C115.165 134.694 114.673 134.171 114.324 133.52C113.98 132.863 113.809 132.15 113.809 131.379ZM115.793 133.754C116.387 134.4 117.1 134.723 117.934 134.723C118.767 134.723 119.48 134.395 120.074 133.738C120.673 133.082 120.973 132.29 120.973 131.363C120.973 130.436 120.673 129.645 120.074 128.988C119.48 128.327 118.767 127.996 117.934 127.996C117.392 127.996 116.889 128.147 116.426 128.449C115.962 128.751 115.592 129.165 115.316 129.691C115.046 130.212 114.91 130.78 114.91 131.395C114.91 132.322 115.204 133.108 115.793 133.754Z" fill="black"/><path d="M108.629 135.52L105.254 127.184H106.387L109.238 134.434L112.098 127.184H113.176L109.801 135.52H108.629Z" fill="black"/><path d="M104.02 135.52H102.926V130.863C102.926 129.884 102.78 129.168 102.488 128.715C102.202 128.262 101.751 128.035 101.137 128.035C100.486 128.035 99.8659 128.264 99.2773 128.723C98.6888 129.176 98.2956 129.741 98.0977 130.418V135.52H97.0117V127.184H98.0039V129.074C98.3424 128.46 98.8294 127.967 99.4648 127.598C100.105 127.228 100.796 127.043 101.535 127.043C101.988 127.043 102.376 127.126 102.699 127.293C103.027 127.454 103.285 127.697 103.473 128.02C103.665 128.342 103.803 128.717 103.887 129.145C103.975 129.572 104.02 130.069 104.02 130.637V135.52Z" fill="black"/><path d="M95.1914 134.527V135.52H87.5586V124.16H95.0508V125.152H88.6836V129.246H94.2305V130.191H88.6836V134.527H95.1914Z" fill="black"/><path d="M315.392 158.204C315.392 157.626 315.496 157.074 315.704 156.548C315.912 156.017 316.196 155.556 316.556 155.165C316.915 154.769 317.353 154.454 317.868 154.22C318.384 153.985 318.933 153.868 319.517 153.868C320.298 153.868 321.006 154.066 321.642 154.462C322.282 154.858 322.78 155.386 323.134 156.048C323.488 156.709 323.665 157.428 323.665 158.204C323.665 158.975 323.488 159.688 323.134 160.345C322.785 160.996 322.29 161.519 321.649 161.915C321.014 162.306 320.303 162.501 319.517 162.501C318.73 162.501 318.019 162.306 317.384 161.915C316.748 161.519 316.256 160.996 315.907 160.345C315.563 159.688 315.392 158.975 315.392 158.204ZM317.376 160.579C317.97 161.225 318.683 161.548 319.517 161.548C320.35 161.548 321.063 161.22 321.657 160.563C322.256 159.907 322.556 159.116 322.556 158.188C322.556 157.261 322.256 156.47 321.657 155.813C321.063 155.152 320.35 154.821 319.517 154.821C318.975 154.821 318.472 154.972 318.009 155.274C317.545 155.576 317.175 155.991 316.899 156.517C316.629 157.037 316.493 157.605 316.493 158.22C316.493 159.147 316.787 159.933 317.376 160.579Z" fill="black"/><path d="M310.97 162.501C309.548 162.501 308.407 162.048 307.548 161.142L307.993 160.376C308.868 161.209 309.845 161.626 310.923 161.626C311.584 161.626 312.113 161.493 312.509 161.228C312.91 160.957 313.11 160.582 313.11 160.103C313.11 159.811 313.011 159.571 312.813 159.384C312.616 159.191 312.402 159.056 312.173 158.978C311.944 158.899 311.545 158.787 310.978 158.642C310.832 158.605 310.722 158.576 310.649 158.556C310.181 158.425 309.798 158.303 309.501 158.188C309.204 158.069 308.936 157.923 308.696 157.751C308.457 157.579 308.285 157.379 308.181 157.149C308.076 156.915 308.024 156.636 308.024 156.313C308.024 155.537 308.313 154.936 308.892 154.509C309.47 154.082 310.22 153.868 311.142 153.868C311.767 153.868 312.329 153.97 312.829 154.173C313.329 154.371 313.733 154.652 314.04 155.017L313.509 155.751C312.931 155.079 312.121 154.743 311.079 154.743C310.506 154.743 310.024 154.86 309.634 155.095C309.243 155.329 309.048 155.694 309.048 156.188C309.048 156.334 309.063 156.465 309.095 156.579C309.126 156.688 309.186 156.79 309.274 156.884C309.368 156.972 309.457 157.048 309.54 157.11C309.623 157.168 309.759 157.233 309.946 157.306C310.134 157.373 310.295 157.431 310.431 157.478C310.566 157.519 310.772 157.579 311.048 157.657C311.313 157.73 311.517 157.787 311.657 157.829C311.803 157.866 311.985 157.92 312.204 157.993C312.423 158.061 312.59 158.121 312.704 158.173C312.824 158.22 312.965 158.282 313.126 158.36C313.287 158.438 313.41 158.514 313.493 158.587C313.582 158.66 313.675 158.748 313.774 158.853C313.873 158.957 313.946 159.066 313.993 159.181C314.04 159.29 314.079 159.418 314.11 159.563C314.147 159.704 314.165 159.858 314.165 160.024C314.165 160.795 313.873 161.402 313.29 161.845C312.712 162.282 311.938 162.501 310.97 162.501Z" fill="black"/><path d="M303.235 162.501C301.813 162.501 300.673 162.048 299.813 161.142L300.259 160.376C301.134 161.209 302.11 161.626 303.188 161.626C303.85 161.626 304.379 161.493 304.774 161.228C305.175 160.957 305.376 160.582 305.376 160.103C305.376 159.811 305.277 159.571 305.079 159.384C304.881 159.191 304.668 159.056 304.438 158.978C304.209 158.899 303.811 158.787 303.243 158.642C303.097 158.605 302.988 158.576 302.915 158.556C302.446 158.425 302.063 158.303 301.767 158.188C301.47 158.069 301.201 157.923 300.962 157.751C300.722 157.579 300.55 157.379 300.446 157.149C300.342 156.915 300.29 156.636 300.29 156.313C300.29 155.537 300.579 154.936 301.157 154.509C301.735 154.082 302.485 153.868 303.407 153.868C304.032 153.868 304.595 153.97 305.095 154.173C305.595 154.371 305.998 154.652 306.306 155.017L305.774 155.751C305.196 155.079 304.386 154.743 303.345 154.743C302.772 154.743 302.29 154.86 301.899 155.095C301.509 155.329 301.313 155.694 301.313 156.188C301.313 156.334 301.329 156.465 301.36 156.579C301.392 156.688 301.451 156.79 301.54 156.884C301.634 156.972 301.722 157.048 301.806 157.11C301.889 157.168 302.024 157.233 302.212 157.306C302.399 157.373 302.561 157.431 302.696 157.478C302.832 157.519 303.037 157.579 303.313 157.657C303.579 157.73 303.782 157.787 303.923 157.829C304.069 157.866 304.251 157.92 304.47 157.993C304.688 158.061 304.855 158.121 304.97 158.173C305.09 158.22 305.23 158.282 305.392 158.36C305.553 158.438 305.675 158.514 305.759 158.587C305.847 158.66 305.941 158.748 306.04 158.853C306.139 158.957 306.212 159.066 306.259 159.181C306.306 159.29 306.345 159.418 306.376 159.563C306.412 159.704 306.431 159.858 306.431 160.024C306.431 160.795 306.139 161.402 305.556 161.845C304.978 162.282 304.204 162.501 303.235 162.501Z" fill="black"/><path d="M294.704 162.501C293.918 162.501 293.201 162.303 292.556 161.907C291.915 161.511 291.418 160.983 291.063 160.321C290.709 159.655 290.532 158.931 290.532 158.149C290.532 157.379 290.709 156.668 291.063 156.017C291.418 155.36 291.915 154.84 292.556 154.454C293.196 154.063 293.907 153.868 294.688 153.868C295.48 153.868 296.194 154.066 296.829 154.462C297.47 154.853 297.962 155.373 298.306 156.024C298.649 156.67 298.821 157.373 298.821 158.134C298.821 158.373 298.816 158.519 298.806 158.571H291.665C291.733 159.462 292.063 160.201 292.657 160.79C293.251 161.379 293.951 161.673 294.759 161.673C295.306 161.673 295.819 161.535 296.298 161.259C296.777 160.978 297.116 160.613 297.313 160.165L298.259 160.423C297.998 161.037 297.54 161.537 296.884 161.923C296.233 162.308 295.506 162.501 294.704 162.501ZM291.634 157.782H297.798C297.73 156.886 297.402 156.152 296.813 155.579C296.23 155.001 295.527 154.712 294.704 154.712C293.881 154.712 293.175 155.001 292.587 155.579C292.004 156.157 291.686 156.892 291.634 157.782Z" fill="black"/><path d="M286.017 162.501C285.225 162.501 284.506 162.303 283.86 161.907C283.22 161.511 282.72 160.983 282.36 160.321C282.006 159.66 281.829 158.936 281.829 158.149C281.829 157.363 282.004 156.644 282.353 155.993C282.701 155.342 283.196 154.826 283.837 154.446C284.478 154.061 285.199 153.868 286.001 153.868C286.777 153.868 287.462 154.045 288.056 154.399C288.649 154.754 289.097 155.238 289.399 155.853L288.337 156.188C288.108 155.761 287.78 155.428 287.353 155.188C286.931 154.944 286.465 154.821 285.954 154.821C285.1 154.821 284.381 155.139 283.798 155.774C283.22 156.41 282.931 157.201 282.931 158.149C282.931 159.087 283.23 159.889 283.829 160.556C284.428 161.217 285.142 161.548 285.97 161.548C286.501 161.548 287.006 161.407 287.485 161.126C287.97 160.84 288.277 160.504 288.407 160.118L289.478 160.438C289.243 161.043 288.806 161.537 288.165 161.923C287.53 162.308 286.813 162.501 286.017 162.501Z" fill="black"/><path d="M272.313 158.204C272.313 157.626 272.418 157.074 272.626 156.548C272.834 156.017 273.118 155.556 273.478 155.165C273.837 154.769 274.274 154.454 274.79 154.22C275.306 153.985 275.855 153.868 276.438 153.868C277.22 153.868 277.928 154.066 278.563 154.462C279.204 154.858 279.701 155.386 280.056 156.048C280.41 156.709 280.587 157.428 280.587 158.204C280.587 158.975 280.41 159.688 280.056 160.345C279.707 160.996 279.212 161.519 278.571 161.915C277.936 162.306 277.225 162.501 276.438 162.501C275.652 162.501 274.941 162.306 274.306 161.915C273.67 161.519 273.178 160.996 272.829 160.345C272.485 159.688 272.313 158.975 272.313 158.204ZM274.298 160.579C274.892 161.225 275.605 161.548 276.438 161.548C277.272 161.548 277.985 161.22 278.579 160.563C279.178 159.907 279.478 159.116 279.478 158.188C279.478 157.261 279.178 156.47 278.579 155.813C277.985 155.152 277.272 154.821 276.438 154.821C275.897 154.821 275.394 154.972 274.931 155.274C274.467 155.576 274.097 155.991 273.821 156.517C273.55 157.037 273.415 157.605 273.415 158.22C273.415 159.147 273.709 159.933 274.298 160.579Z" fill="black"/><path d="M271.704 154.97C270.97 154.996 270.329 155.201 269.782 155.587C269.235 155.967 268.853 156.491 268.634 157.157V162.345H267.548V154.009H268.571V156.009C268.858 155.425 269.238 154.954 269.712 154.595C270.186 154.23 270.691 154.024 271.228 153.978C271.436 153.962 271.595 153.962 271.704 153.978V154.97Z" fill="black"/><path d="M257.813 162.345V150.985H262.517C263.142 150.985 263.717 151.162 264.243 151.517C264.774 151.866 265.183 152.313 265.47 152.86C265.756 153.402 265.899 153.967 265.899 154.556C265.899 155.181 265.764 155.767 265.493 156.313C265.222 156.855 264.832 157.298 264.321 157.642C263.816 157.98 263.248 158.149 262.618 158.149H258.938V162.345H257.813ZM258.938 157.157H262.571C263.222 157.157 263.751 156.902 264.157 156.392C264.569 155.881 264.774 155.269 264.774 154.556C264.774 153.847 264.545 153.241 264.087 152.735C263.634 152.23 263.095 151.978 262.47 151.978H258.938V157.157Z" fill="black"/><path d="M250.681 158.485V157.478H255.353V158.485H250.681Z" fill="black"/><path d="M245.048 162.501C244.261 162.501 243.545 162.303 242.899 161.907C242.259 161.511 241.761 160.983 241.407 160.321C241.053 159.655 240.876 158.931 240.876 158.149C240.876 157.379 241.053 156.668 241.407 156.017C241.761 155.36 242.259 154.84 242.899 154.454C243.54 154.063 244.251 153.868 245.032 153.868C245.824 153.868 246.537 154.066 247.173 154.462C247.813 154.853 248.306 155.373 248.649 156.024C248.993 156.67 249.165 157.373 249.165 158.134C249.165 158.373 249.16 158.519 249.149 158.571H242.009C242.076 159.462 242.407 160.201 243.001 160.79C243.595 161.379 244.295 161.673 245.103 161.673C245.649 161.673 246.162 161.535 246.642 161.259C247.121 160.978 247.459 160.613 247.657 160.165L248.603 160.423C248.342 161.037 247.884 161.537 247.228 161.923C246.576 162.308 245.85 162.501 245.048 162.501ZM241.978 157.782H248.142C248.074 156.886 247.746 156.152 247.157 155.579C246.574 155.001 245.871 154.712 245.048 154.712C244.225 154.712 243.519 155.001 242.931 155.579C242.347 156.157 242.03 156.892 241.978 157.782Z" fill="black"/><path d="M227.282 158.204C227.282 157.626 227.386 157.074 227.595 156.548C227.803 156.017 228.087 155.556 228.446 155.165C228.806 154.769 229.243 154.454 229.759 154.22C230.274 153.985 230.824 153.868 231.407 153.868C232.188 153.868 232.897 154.066 233.532 154.462C234.173 154.858 234.67 155.386 235.024 156.048C235.379 156.709 235.556 157.428 235.556 158.204C235.556 158.975 235.379 159.688 235.024 160.345C234.675 160.996 234.181 161.519 233.54 161.915C232.905 162.306 232.194 162.501 231.407 162.501C230.621 162.501 229.91 162.306 229.274 161.915C228.639 161.519 228.147 160.996 227.798 160.345C227.454 159.688 227.282 158.975 227.282 158.204ZM229.267 160.579C229.86 161.225 230.574 161.548 231.407 161.548C232.241 161.548 232.954 161.22 233.548 160.563C234.147 159.907 234.446 159.116 234.446 158.188C234.446 157.261 234.147 156.47 233.548 155.813C232.954 155.152 232.241 154.821 231.407 154.821C230.866 154.821 230.363 154.972 229.899 155.274C229.436 155.576 229.066 155.991 228.79 156.517C228.519 157.037 228.384 157.605 228.384 158.22C228.384 159.147 228.678 159.933 229.267 160.579Z" fill="black"/><path d="M217.345 158.204C217.345 157.423 217.506 156.704 217.829 156.048C218.152 155.386 218.605 154.858 219.188 154.462C219.777 154.066 220.431 153.868 221.149 153.868C221.811 153.868 222.418 154.045 222.97 154.399C223.527 154.748 223.972 155.199 224.306 155.751V150.665H225.392V161.032C225.392 161.183 225.42 161.293 225.478 161.36C225.54 161.428 225.639 161.467 225.774 161.478V162.345C225.545 162.376 225.381 162.386 225.282 162.376C225.053 162.36 224.853 162.272 224.681 162.11C224.514 161.944 224.431 161.756 224.431 161.548V160.728C224.103 161.269 223.657 161.701 223.095 162.024C222.532 162.342 221.944 162.501 221.329 162.501C220.767 162.501 220.233 162.384 219.728 162.149C219.228 161.91 218.806 161.592 218.462 161.196C218.118 160.8 217.845 160.342 217.642 159.821C217.444 159.3 217.345 158.761 217.345 158.204ZM224.306 159.478V156.907C224.097 156.334 223.709 155.845 223.142 155.438C222.574 155.027 222.001 154.821 221.423 154.821C220.85 154.821 220.332 154.985 219.868 155.313C219.41 155.642 219.061 156.061 218.821 156.571C218.582 157.082 218.462 157.626 218.462 158.204C218.462 158.798 218.597 159.353 218.868 159.868C219.144 160.379 219.522 160.787 220.001 161.095C220.48 161.397 221.004 161.548 221.571 161.548C222.139 161.548 222.715 161.34 223.298 160.923C223.881 160.506 224.217 160.024 224.306 159.478Z" fill="black"/><path d="M208.032 162.501C207.246 162.501 206.53 162.303 205.884 161.907C205.243 161.511 204.746 160.983 204.392 160.321C204.037 159.655 203.86 158.931 203.86 158.149C203.86 157.379 204.037 156.668 204.392 156.017C204.746 155.36 205.243 154.84 205.884 154.454C206.524 154.063 207.235 153.868 208.017 153.868C208.808 153.868 209.522 154.066 210.157 154.462C210.798 154.853 211.29 155.373 211.634 156.024C211.978 156.67 212.149 157.373 212.149 158.134C212.149 158.373 212.144 158.519 212.134 158.571H204.993C205.061 159.462 205.392 160.201 205.985 160.79C206.579 161.379 207.28 161.673 208.087 161.673C208.634 161.673 209.147 161.535 209.626 161.259C210.105 160.978 210.444 160.613 210.642 160.165L211.587 160.423C211.326 161.037 210.868 161.537 210.212 161.923C209.561 162.308 208.834 162.501 208.032 162.501ZM204.962 157.782H211.126C211.058 156.886 210.73 156.152 210.142 155.579C209.558 155.001 208.855 154.712 208.032 154.712C207.209 154.712 206.504 155.001 205.915 155.579C205.332 156.157 205.014 156.892 204.962 157.782Z" fill="black"/><path d="M200.126 150.665H201.212V160.454C201.212 160.84 201.277 161.105 201.407 161.251C201.537 161.392 201.728 161.462 201.978 161.462C202.332 161.462 202.691 161.399 203.056 161.274L203.243 162.149C203.04 162.228 202.793 162.295 202.501 162.353C202.209 162.41 201.957 162.438 201.743 162.438C201.243 162.438 200.847 162.295 200.556 162.009C200.269 161.717 200.126 161.321 200.126 160.821V150.665Z" fill="black"/><path d="M189.985 158.204C189.985 157.626 190.09 157.074 190.298 156.548C190.506 156.017 190.79 155.556 191.149 155.165C191.509 154.769 191.946 154.454 192.462 154.22C192.978 153.985 193.527 153.868 194.11 153.868C194.892 153.868 195.6 154.066 196.235 154.462C196.876 154.858 197.373 155.386 197.728 156.048C198.082 156.709 198.259 157.428 198.259 158.204C198.259 158.975 198.082 159.688 197.728 160.345C197.379 160.996 196.884 161.519 196.243 161.915C195.608 162.306 194.897 162.501 194.11 162.501C193.324 162.501 192.613 162.306 191.978 161.915C191.342 161.519 190.85 160.996 190.501 160.345C190.157 159.688 189.985 158.975 189.985 158.204ZM191.97 160.579C192.563 161.225 193.277 161.548 194.11 161.548C194.944 161.548 195.657 161.22 196.251 160.563C196.85 159.907 197.149 159.116 197.149 158.188C197.149 157.261 196.85 156.47 196.251 155.813C195.657 155.152 194.944 154.821 194.11 154.821C193.569 154.821 193.066 154.972 192.603 155.274C192.139 155.576 191.769 155.991 191.493 156.517C191.222 157.037 191.087 157.605 191.087 158.22C191.087 159.147 191.381 159.933 191.97 160.579Z" fill="black"/><path d="M189.376 154.97C188.642 154.996 188.001 155.201 187.454 155.587C186.907 155.967 186.524 156.491 186.306 157.157V162.345H185.22V154.009H186.243V156.009C186.53 155.425 186.91 154.954 187.384 154.595C187.858 154.23 188.363 154.024 188.899 153.978C189.108 153.962 189.267 153.962 189.376 153.978V154.97Z" fill="black"/><path d="M183.86 161.946C183.855 161.951 183.8 161.978 183.696 162.024C183.597 162.066 183.514 162.1 183.446 162.126C183.384 162.152 183.287 162.188 183.157 162.235C183.027 162.277 182.907 162.311 182.798 162.337C182.688 162.363 182.558 162.386 182.407 162.407C182.256 162.428 182.11 162.438 181.97 162.438C181.47 162.438 181.05 162.3 180.712 162.024C180.379 161.743 180.212 161.347 180.212 160.837V154.876H179.056V154.009H180.212V151.196H181.298V154.009H183.22V154.876H181.298V160.54C181.319 160.832 181.423 161.053 181.61 161.204C181.798 161.355 182.03 161.431 182.306 161.431C182.759 161.431 183.181 161.308 183.571 161.063L183.86 161.946Z" fill="black"/><path d="M177.618 162.345H176.524V157.688C176.524 156.709 176.379 155.993 176.087 155.54C175.8 155.087 175.35 154.86 174.735 154.86C174.084 154.86 173.465 155.09 172.876 155.548C172.287 156.001 171.894 156.566 171.696 157.243V162.345H170.61V154.009H171.603V155.899C171.941 155.285 172.428 154.793 173.063 154.423C173.704 154.053 174.394 153.868 175.134 153.868C175.587 153.868 175.975 153.951 176.298 154.118C176.626 154.28 176.884 154.522 177.071 154.845C177.264 155.168 177.402 155.543 177.485 155.97C177.574 156.397 177.618 156.894 177.618 157.462V162.345Z" fill="black"/><path d="M160.517 158.204C160.517 157.626 160.621 157.074 160.829 156.548C161.037 156.017 161.321 155.556 161.681 155.165C162.04 154.769 162.478 154.454 162.993 154.22C163.509 153.985 164.058 153.868 164.642 153.868C165.423 153.868 166.131 154.066 166.767 154.462C167.407 154.858 167.905 155.386 168.259 156.048C168.613 156.709 168.79 157.428 168.79 158.204C168.79 158.975 168.613 159.688 168.259 160.345C167.91 160.996 167.415 161.519 166.774 161.915C166.139 162.306 165.428 162.501 164.642 162.501C163.855 162.501 163.144 162.306 162.509 161.915C161.873 161.519 161.381 160.996 161.032 160.345C160.688 159.688 160.517 158.975 160.517 158.204ZM162.501 160.579C163.095 161.225 163.808 161.548 164.642 161.548C165.475 161.548 166.188 161.22 166.782 160.563C167.381 159.907 167.681 159.116 167.681 158.188C167.681 157.261 167.381 156.47 166.782 155.813C166.188 155.152 165.475 154.821 164.642 154.821C164.1 154.821 163.597 154.972 163.134 155.274C162.67 155.576 162.3 155.991 162.024 156.517C161.754 157.037 161.618 157.605 161.618 158.22C161.618 159.147 161.912 159.933 162.501 160.579Z" fill="black"/><path d="M156.001 162.501C155.209 162.501 154.491 162.303 153.845 161.907C153.204 161.511 152.704 160.983 152.345 160.321C151.991 159.66 151.813 158.936 151.813 158.149C151.813 157.363 151.988 156.644 152.337 155.993C152.686 155.342 153.181 154.826 153.821 154.446C154.462 154.061 155.183 153.868 155.985 153.868C156.761 153.868 157.446 154.045 158.04 154.399C158.634 154.754 159.082 155.238 159.384 155.853L158.321 156.188C158.092 155.761 157.764 155.428 157.337 155.188C156.915 154.944 156.449 154.821 155.938 154.821C155.084 154.821 154.366 155.139 153.782 155.774C153.204 156.41 152.915 157.201 152.915 158.149C152.915 159.087 153.215 159.889 153.813 160.556C154.412 161.217 155.126 161.548 155.954 161.548C156.485 161.548 156.991 161.407 157.47 161.126C157.954 160.84 158.261 160.504 158.392 160.118L159.462 160.438C159.228 161.043 158.79 161.537 158.149 161.923C157.514 162.308 156.798 162.501 156.001 162.501Z" fill="black"/><path d="M138.22 158.204C138.22 157.626 138.324 157.074 138.532 156.548C138.741 156.017 139.024 155.556 139.384 155.165C139.743 154.769 140.181 154.454 140.696 154.22C141.212 153.985 141.761 153.868 142.345 153.868C143.126 153.868 143.834 154.066 144.47 154.462C145.11 154.858 145.608 155.386 145.962 156.048C146.316 156.709 146.493 157.428 146.493 158.204C146.493 158.975 146.316 159.688 145.962 160.345C145.613 160.996 145.118 161.519 144.478 161.915C143.842 162.306 143.131 162.501 142.345 162.501C141.558 162.501 140.847 162.306 140.212 161.915C139.576 161.519 139.084 160.996 138.735 160.345C138.392 159.688 138.22 158.975 138.22 158.204ZM140.204 160.579C140.798 161.225 141.511 161.548 142.345 161.548C143.178 161.548 143.892 161.22 144.485 160.563C145.084 159.907 145.384 159.116 145.384 158.188C145.384 157.261 145.084 156.47 144.485 155.813C143.892 155.152 143.178 154.821 142.345 154.821C141.803 154.821 141.3 154.972 140.837 155.274C140.373 155.576 140.004 155.991 139.728 156.517C139.457 157.037 139.321 157.605 139.321 158.22C139.321 159.147 139.616 159.933 140.204 160.579Z" fill="black"/><path d="M128.282 158.204C128.282 157.423 128.444 156.704 128.767 156.048C129.09 155.386 129.543 154.858 130.126 154.462C130.715 154.066 131.368 153.868 132.087 153.868C132.748 153.868 133.355 154.045 133.907 154.399C134.465 154.748 134.91 155.199 135.243 155.751V150.665H136.329V161.032C136.329 161.183 136.358 161.293 136.415 161.36C136.478 161.428 136.576 161.467 136.712 161.478V162.345C136.483 162.376 136.319 162.386 136.22 162.376C135.991 162.36 135.79 162.272 135.618 162.11C135.451 161.944 135.368 161.756 135.368 161.548V160.728C135.04 161.269 134.595 161.701 134.032 162.024C133.47 162.342 132.881 162.501 132.267 162.501C131.704 162.501 131.17 162.384 130.665 162.149C130.165 161.91 129.743 161.592 129.399 161.196C129.056 160.8 128.782 160.342 128.579 159.821C128.381 159.3 128.282 158.761 128.282 158.204ZM135.243 159.478V156.907C135.035 156.334 134.647 155.845 134.079 155.438C133.511 155.027 132.938 154.821 132.36 154.821C131.787 154.821 131.269 154.985 130.806 155.313C130.347 155.642 129.998 156.061 129.759 156.571C129.519 157.082 129.399 157.626 129.399 158.204C129.399 158.798 129.535 159.353 129.806 159.868C130.082 160.379 130.459 160.787 130.938 161.095C131.418 161.397 131.941 161.548 132.509 161.548C133.076 161.548 133.652 161.34 134.235 160.923C134.819 160.506 135.155 160.024 135.243 159.478Z" fill="black"/><path d="M114.673 158.204C114.673 157.626 114.777 157.074 114.985 156.548C115.194 156.017 115.478 155.556 115.837 155.165C116.196 154.769 116.634 154.454 117.149 154.22C117.665 153.985 118.215 153.868 118.798 153.868C119.579 153.868 120.287 154.066 120.923 154.462C121.563 154.858 122.061 155.386 122.415 156.048C122.769 156.709 122.946 157.428 122.946 158.204C122.946 158.975 122.769 159.688 122.415 160.345C122.066 160.996 121.571 161.519 120.931 161.915C120.295 162.306 119.584 162.501 118.798 162.501C118.011 162.501 117.3 162.306 116.665 161.915C116.03 161.519 115.537 160.996 115.188 160.345C114.845 159.688 114.673 158.975 114.673 158.204ZM116.657 160.579C117.251 161.225 117.965 161.548 118.798 161.548C119.631 161.548 120.345 161.22 120.938 160.563C121.537 159.907 121.837 159.116 121.837 158.188C121.837 157.261 121.537 156.47 120.938 155.813C120.345 155.152 119.631 154.821 118.798 154.821C118.256 154.821 117.754 154.972 117.29 155.274C116.826 155.576 116.457 155.991 116.181 156.517C115.91 157.037 115.774 157.605 115.774 158.22C115.774 159.147 116.069 159.933 116.657 160.579Z" fill="black"/><path d="M104.735 158.204C104.735 157.423 104.897 156.704 105.22 156.048C105.543 155.386 105.996 154.858 106.579 154.462C107.168 154.066 107.821 153.868 108.54 153.868C109.201 153.868 109.808 154.045 110.36 154.399C110.918 154.748 111.363 155.199 111.696 155.751V150.665H112.782V161.032C112.782 161.183 112.811 161.293 112.868 161.36C112.931 161.428 113.03 161.467 113.165 161.478V162.345C112.936 162.376 112.772 162.386 112.673 162.376C112.444 162.36 112.243 162.272 112.071 162.11C111.905 161.944 111.821 161.756 111.821 161.548V160.728C111.493 161.269 111.048 161.701 110.485 162.024C109.923 162.342 109.334 162.501 108.72 162.501C108.157 162.501 107.623 162.384 107.118 162.149C106.618 161.91 106.196 161.592 105.853 161.196C105.509 160.8 105.235 160.342 105.032 159.821C104.834 159.3 104.735 158.761 104.735 158.204ZM111.696 159.478V156.907C111.488 156.334 111.1 155.845 110.532 155.438C109.965 155.027 109.392 154.821 108.813 154.821C108.241 154.821 107.722 154.985 107.259 155.313C106.8 155.642 106.451 156.061 106.212 156.571C105.972 157.082 105.853 157.626 105.853 158.204C105.853 158.798 105.988 159.353 106.259 159.868C106.535 160.379 106.912 160.787 107.392 161.095C107.871 161.397 108.394 161.548 108.962 161.548C109.53 161.548 110.105 161.34 110.688 160.923C111.272 160.506 111.608 160.024 111.696 159.478Z" fill="black"/><path d="M102.72 152.423L102.001 152.149L102.946 150.665H104.095L102.72 152.423ZM101.813 162.345V154.009H102.899V162.345H101.813Z" fill="black"/><path d="M92.2275 158.907V154.009H93.3213V158.712C93.3213 160.603 93.9645 161.548 95.251 161.548C95.8968 161.548 96.4984 161.34 97.0557 160.923C97.613 160.501 98.014 159.946 98.2588 159.259V154.009H99.3525V161.032C99.3525 161.183 99.3812 161.293 99.4385 161.36C99.501 161.428 99.5999 161.467 99.7354 161.478V162.345C99.5635 162.366 99.3916 162.376 99.2197 162.376C98.9958 162.36 98.8083 162.277 98.6572 162.126C98.5114 161.975 98.4333 161.793 98.4229 161.579L98.3916 160.454C98.0374 161.095 97.5479 161.597 96.9229 161.962C96.2979 162.321 95.6182 162.501 94.8838 162.501C94.014 162.501 93.3525 162.199 92.8994 161.595C92.4515 160.985 92.2275 160.09 92.2275 158.907Z" fill="black"/><path d="M88.001 150.665H89.0869V160.454C89.0869 160.84 89.152 161.105 89.2822 161.251C89.4124 161.392 89.6025 161.462 89.8525 161.462C90.2067 161.462 90.5661 161.399 90.9307 161.274L91.1182 162.149C90.915 162.228 90.6676 162.295 90.376 162.353C90.0843 162.41 89.8317 162.438 89.6182 162.438C89.1182 162.438 88.7223 162.295 88.4307 162.009C88.1442 161.717 88.001 161.321 88.001 160.821V150.665Z" fill="black"/><path d="M82.7822 162.501C81.9906 162.501 81.2718 162.303 80.626 161.907C79.9854 161.511 79.4854 160.983 79.126 160.321C78.7718 159.66 78.5947 158.936 78.5947 158.149C78.5947 157.363 78.7692 156.644 79.1182 155.993C79.4671 155.342 79.9619 154.826 80.6025 154.446C81.2432 154.061 81.9645 153.868 82.7666 153.868C83.5426 153.868 84.2275 154.045 84.8213 154.399C85.415 154.754 85.863 155.238 86.165 155.853L85.1025 156.188C84.8734 155.761 84.5452 155.428 84.1182 155.188C83.6963 154.944 83.2301 154.821 82.7197 154.821C81.8656 154.821 81.1468 155.139 80.5635 155.774C79.9854 156.41 79.6963 157.201 79.6963 158.149C79.6963 159.087 79.9958 159.889 80.5947 160.556C81.1937 161.217 81.9072 161.548 82.7354 161.548C83.2666 161.548 83.7718 161.407 84.251 161.126C84.7354 160.84 85.0426 160.504 85.1729 160.118L86.2432 160.438C86.0088 161.043 85.5713 161.537 84.9307 161.923C84.2952 162.308 83.5791 162.501 82.7822 162.501Z" fill="black"/><path d="M71.7354 154.009L74.1885 157.274L74.3135 157.517L74.4385 157.274L76.876 154.009H78.1025L74.9385 158.204L78.1025 162.345H76.876L74.4385 159.095L74.3135 158.876L74.1885 159.095L71.751 162.345H70.5244L73.6729 158.204L70.5244 154.009H71.7354Z" fill="black"/><path d="M69.5869 161.353V162.345H61.9541V150.985H69.4463V151.978H63.0791V156.071H68.626V157.017H63.0791V161.353H69.5869Z" fill="black"/><path d="M215.916 85.8306C215.916 85.2524 216.02 84.7004 216.229 84.1743C216.437 83.6431 216.721 83.1821 217.08 82.7915C217.439 82.3957 217.877 82.0806 218.393 81.8462C218.908 81.6118 219.458 81.4946 220.041 81.4946C220.822 81.4946 221.531 81.6925 222.166 82.0884C222.807 82.4842 223.304 83.0129 223.658 83.6743C224.012 84.3358 224.189 85.0545 224.189 85.8306C224.189 86.6014 224.012 87.3149 223.658 87.9712C223.309 88.6222 222.814 89.1457 222.174 89.5415C221.538 89.9321 220.827 90.1274 220.041 90.1274C219.255 90.1274 218.544 89.9321 217.908 89.5415C217.273 89.1457 216.781 88.6222 216.432 87.9712C216.088 87.3149 215.916 86.6014 215.916 85.8306ZM217.9 88.2056C218.494 88.8514 219.208 89.1743 220.041 89.1743C220.874 89.1743 221.588 88.8462 222.182 88.1899C222.781 87.5337 223.08 86.742 223.08 85.8149C223.08 84.8879 222.781 84.0962 222.182 83.4399C221.588 82.7785 220.874 82.4478 220.041 82.4478C219.499 82.4478 218.997 82.5988 218.533 82.9009C218.07 83.203 217.7 83.617 217.424 84.1431C217.153 84.6639 217.018 85.2316 217.018 85.8462C217.018 86.7733 217.312 87.5597 217.9 88.2056Z" fill="black"/><path d="M205.979 85.8306C205.979 85.0493 206.14 84.3306 206.463 83.6743C206.786 83.0129 207.239 82.4842 207.822 82.0884C208.411 81.6925 209.064 81.4946 209.783 81.4946C210.445 81.4946 211.051 81.6717 211.604 82.0259C212.161 82.3748 212.606 82.8254 212.939 83.3774V78.2915H214.025V88.6587C214.025 88.8097 214.054 88.9191 214.111 88.9868C214.174 89.0545 214.273 89.0936 214.408 89.104V89.9712C214.179 90.0024 214.015 90.0129 213.916 90.0024C213.687 89.9868 213.486 89.8983 213.314 89.7368C213.148 89.5701 213.064 89.3826 213.064 89.1743V88.354C212.736 88.8957 212.291 89.328 211.729 89.6509C211.166 89.9686 210.577 90.1274 209.963 90.1274C209.4 90.1274 208.867 90.0103 208.361 89.7759C207.861 89.5363 207.439 89.2186 207.096 88.8228C206.752 88.4269 206.479 87.9686 206.275 87.4478C206.077 86.9269 205.979 86.3879 205.979 85.8306ZM212.939 87.104V84.5337C212.731 83.9608 212.343 83.4712 211.775 83.0649C211.208 82.6535 210.635 82.4478 210.057 82.4478C209.484 82.4478 208.965 82.6118 208.502 82.9399C208.044 83.2681 207.695 83.6873 207.455 84.1978C207.215 84.7082 207.096 85.2524 207.096 85.8306C207.096 86.4243 207.231 86.979 207.502 87.4946C207.778 88.005 208.156 88.4139 208.635 88.7212C209.114 89.0233 209.637 89.1743 210.205 89.1743C210.773 89.1743 211.348 88.966 211.932 88.5493C212.515 88.1326 212.851 87.6509 212.939 87.104Z" fill="black"/><path d="M197.15 87.5728C197.15 86.8071 197.473 86.1925 198.119 85.729C198.77 85.2603 199.619 85.0259 200.666 85.0259C201.562 85.0259 202.372 85.1535 203.096 85.4087V84.7056C203.096 83.9972 202.885 83.4373 202.463 83.0259C202.046 82.6092 201.473 82.4009 200.744 82.4009C199.906 82.4009 199.015 82.7264 198.072 83.3774L197.658 82.6118C198.742 81.867 199.809 81.4946 200.861 81.4946C201.887 81.4946 202.697 81.7889 203.291 82.3774C203.89 82.966 204.189 83.7733 204.189 84.7993V88.6587C204.189 88.8097 204.221 88.9191 204.283 88.9868C204.346 89.0545 204.447 89.0936 204.588 89.104V89.9712C204.327 90.0024 204.161 90.0129 204.088 90.0024C203.833 89.9972 203.632 89.9191 203.486 89.7681C203.346 89.6118 203.27 89.4347 203.26 89.2368L203.244 88.6274C202.874 89.0962 202.393 89.4634 201.799 89.729C201.205 89.9946 200.593 90.1274 199.963 90.1274C199.156 90.1274 198.484 89.8826 197.947 89.3931C197.416 88.8983 197.15 88.2915 197.15 87.5728ZM202.729 88.2134C202.973 87.9373 203.096 87.6691 203.096 87.4087V86.1978C202.372 85.9061 201.606 85.7603 200.799 85.7603C200.012 85.7603 199.38 85.9191 198.9 86.2368C198.426 86.5493 198.189 86.9686 198.189 87.4946C198.189 87.9842 198.374 88.4087 198.744 88.7681C199.114 89.1222 199.606 89.2993 200.221 89.2993C200.736 89.2993 201.221 89.2004 201.674 89.0024C202.127 88.7993 202.479 88.5363 202.729 88.2134Z" fill="black"/><path d="M191.986 89.9712L188.611 81.6353H189.744L192.596 88.8853L195.455 81.6353H196.533L193.158 89.9712H191.986Z" fill="black"/><path d="M186.025 79.8931V78.2915H187.111V79.8931H186.025ZM186.025 89.9712V81.6353H187.111V89.9712H186.025Z" fill="black"/><path d="M176.439 86.5337V81.6353H177.533V86.3384C177.533 88.229 178.176 89.1743 179.463 89.1743C180.109 89.1743 180.71 88.966 181.268 88.5493C181.825 88.1274 182.226 87.5728 182.471 86.8853V81.6353H183.564V88.6587C183.564 88.8097 183.593 88.9191 183.65 88.9868C183.713 89.0545 183.812 89.0936 183.947 89.104V89.9712C183.775 89.992 183.604 90.0024 183.432 90.0024C183.208 89.9868 183.02 89.9035 182.869 89.7524C182.723 89.6014 182.645 89.4191 182.635 89.2056L182.604 88.0806C182.249 88.7212 181.76 89.2238 181.135 89.5884C180.51 89.9478 179.83 90.1274 179.096 90.1274C178.226 90.1274 177.564 89.8254 177.111 89.2212C176.663 88.6118 176.439 87.716 176.439 86.5337Z" fill="black"/><path d="M166.088 85.8149C166.088 85.0493 166.262 84.3358 166.611 83.6743C166.96 83.0129 167.439 82.4842 168.049 82.0884C168.663 81.6925 169.333 81.4946 170.057 81.4946C170.687 81.4946 171.278 81.6587 171.83 81.9868C172.382 82.3149 172.82 82.742 173.143 83.2681V81.6353H174.119V93.3774H173.033V88.2446C172.637 88.8592 172.169 89.328 171.627 89.6509C171.085 89.9686 170.497 90.1274 169.861 90.1274C169.132 90.1274 168.476 89.9243 167.893 89.5181C167.309 89.1118 166.861 88.5832 166.549 87.9321C166.242 87.2759 166.088 86.5701 166.088 85.8149ZM173.033 87.2056V84.6274C172.945 84.0597 172.611 83.5545 172.033 83.1118C171.46 82.6691 170.869 82.4478 170.26 82.4478C169.682 82.4478 169.153 82.6118 168.674 82.9399C168.2 83.2681 167.833 83.6899 167.572 84.2056C167.317 84.7212 167.189 85.2629 167.189 85.8306C167.189 86.4295 167.314 86.9842 167.564 87.4946C167.82 87.9998 168.179 88.4061 168.643 88.7134C169.106 89.0207 169.624 89.1743 170.197 89.1743C170.812 89.1743 171.361 88.992 171.846 88.6274C172.33 88.2576 172.726 87.7837 173.033 87.2056Z" fill="black"/><path d="M165.432 82.5962C164.697 82.6222 164.057 82.828 163.51 83.2134C162.963 83.5936 162.58 84.117 162.361 84.7837V89.9712H161.275V81.6353H162.299V83.6353C162.585 83.0519 162.965 82.5806 163.439 82.2212C163.913 81.8566 164.419 81.6509 164.955 81.604C165.163 81.5884 165.322 81.5884 165.432 81.604V82.5962Z" fill="black"/><path d="M154.205 78.6118H155.15L159.869 89.9712H158.682L157.213 86.4165H152.111L150.65 89.9712H149.455L154.205 78.6118ZM156.955 85.5415L154.666 79.9243L152.346 85.5415H156.955Z" fill="black"/><path fill-rule="evenodd" clip-rule="evenodd" d="M138.575 64.9536V80.6874C138.575 82.6204 140.142 84.1874 142.075 84.1874H145.476V85.1874H142.075C139.59 85.1874 137.575 83.1726 137.575 80.6874V64.9536H138.575Z" fill="black"/><path fill-rule="evenodd" clip-rule="evenodd" d="M108.244 64.9536V101.751C108.244 103.684 109.811 105.251 111.744 105.251H115.145V106.251H111.744C109.259 106.251 107.244 104.236 107.244 101.751V64.9536H108.244Z" fill="black"/><path fill-rule="evenodd" clip-rule="evenodd" d="M75.9131 64.9536V125.999C75.9131 127.932 77.4801 129.499 79.4131 129.499H82.8135V130.499H79.4131C76.9278 130.499 74.9131 128.484 74.9131 125.999V64.9536H75.9131Z" fill="black"/><path fill-rule="evenodd" clip-rule="evenodd" d="M48.5822 64.9536L48.582 153.326C48.582 155.259 50.149 156.826 52.082 156.826H55.4824V157.826H52.082C49.5967 157.826 47.582 155.812 47.582 153.326L47.5822 64.9536H48.5822Z" fill="black"/></svg>